<svg xmlns="http://www.w3.org/2000/svg" xmlns:xlink="http://www.w3.org/1999/xlink" width="500" zoomAndPan="magnify" viewBox="0 0 375 374.999991" height="500" preserveAspectRatio="xMidYMid meet" version="1.0"><defs><clipPath id="5d24a2dd07"><path d="M 45 41 L 338 41 L 338 283 L 45 283 Z M 45 41 " clip-rule="nonzero"/></clipPath><clipPath id="75e8c99956"><path d="M 182.300781 449.183594 L -66.742188 221.402344 L 172.171875 -39.816406 L 421.214844 187.964844 Z M 182.300781 449.183594 " clip-rule="nonzero"/></clipPath><clipPath id="a46682541b"><path d="M 182.394531 449.269531 L -67.203125 220.984375 L 171.714844 -40.234375 L 421.3125 188.050781 Z M 182.394531 449.269531 " clip-rule="nonzero"/></clipPath><clipPath id="562c47aa93"><path d="M 35 142 L 342 142 L 342 325 L 35 325 Z M 35 142 " clip-rule="nonzero"/></clipPath><clipPath id="fd7412be06"><path d="M 182.300781 449.183594 L -66.742188 221.402344 L 172.171875 -39.816406 L 421.214844 187.964844 Z M 182.300781 449.183594 " clip-rule="nonzero"/></clipPath><clipPath id="d3c11a5381"><path d="M 182.394531 449.269531 L -67.203125 220.984375 L 171.714844 -40.234375 L 421.3125 188.050781 Z M 182.394531 449.269531 " clip-rule="nonzero"/></clipPath></defs><rect x="-37.5" width="450" fill="#ffffff" y="-37.499999" height="449.999989" fill-opacity="1"/><rect x="-37.5" width="450" fill="#ffffff" y="-37.499999" height="449.999989" fill-opacity="1"/><rect x="-37.5" width="450" fill="#ffffff" y="-37.499999" height="449.999989" fill-opacity="1"/><g clip-path="url(#5d24a2dd07)"><g clip-path="url(#75e8c99956)"><g clip-path="url(#a46682541b)"><path fill="#759926" d="M 337.664062 125.253906 C 337.664062 125.253906 320.957031 116.140625 291.121094 129.207031 C 261.285156 142.277344 207.207031 198.050781 129 126.007812 C 129 126.007812 175.316406 87.660156 257.875 101.867188 C 185.375 74.730469 44.476562 99.074219 82.746094 211.808594 C 100.519531 264.160156 174.785156 300.621094 251.871094 241.960938 C 141.15625 352.46875 -13.527344 214.925781 67.9375 97.378906 C 112.445312 33.15625 219.132812 3.128906 337.664062 125.253906 " fill-opacity="1" fill-rule="evenodd"/></g></g></g><g clip-path="url(#562c47aa93)"><g clip-path="url(#fd7412be06)"><g clip-path="url(#d3c11a5381)"><path fill="#a6a6a6" d="M 301.511719 151.921875 C 287.542969 334.09375 76.578125 352.457031 35.945312 195.742188 C 35.945312 195.742188 45.441406 307.640625 158.472656 323.445312 C 268.605469 338.847656 340.476562 227.199219 341.324219 143 C 333.414062 142.195312 321.449219 142.992188 305.929688 149.789062 C 304.507812 150.410156 303.039062 151.128906 301.511719 151.921875 " fill-opacity="1" fill-rule="evenodd"/></g></g></g></svg>